<mxfile host="app.diagrams.net" modified="2021-06-04T04:04:25.220Z" agent="5.0 (Macintosh; Intel Mac OS X 10_15_4) AppleWebKit/537.36 (KHTML, like Gecko) Chrome/90.0.4430.212 Safari/537.36" etag="jhL0xK4abWnJ7KKF9UyC" version="14.7.4" type="github">
  <diagram id="cY6TKn0Dufhdu-UXADGF" name="Page-1">
    <mxGraphModel dx="946" dy="646" grid="1" gridSize="10" guides="1" tooltips="1" connect="1" arrows="1" fold="1" page="1" pageScale="1" pageWidth="827" pageHeight="1169" math="0" shadow="0">
      <root>
        <mxCell id="0" />
        <mxCell id="1" parent="0" />
        <mxCell id="r66ZojYVudYdEzCmoIGI-1" value="用户" style="rounded=1;whiteSpace=wrap;html=1;" vertex="1" parent="1">
          <mxGeometry x="230" y="230" width="120" height="60" as="geometry" />
        </mxCell>
        <mxCell id="r66ZojYVudYdEzCmoIGI-2" value="推荐系统" style="rounded=1;whiteSpace=wrap;html=1;" vertex="1" parent="1">
          <mxGeometry x="230" y="130" width="120" height="60" as="geometry" />
        </mxCell>
        <object label="" id="r66ZojYVudYdEzCmoIGI-4">
          <mxCell style="edgeStyle=elbowEdgeStyle;elbow=horizontal;endArrow=classic;html=1;entryX=1;entryY=0.5;entryDx=0;entryDy=0;" edge="1" parent="1" target="r66ZojYVudYdEzCmoIGI-1">
            <mxGeometry width="50" height="50" relative="1" as="geometry">
              <mxPoint x="350" y="160" as="sourcePoint" />
              <mxPoint x="370" y="230" as="targetPoint" />
              <Array as="points">
                <mxPoint x="460" y="-150" />
              </Array>
            </mxGeometry>
          </mxCell>
        </object>
        <mxCell id="r66ZojYVudYdEzCmoIGI-5" value="" style="edgeStyle=elbowEdgeStyle;elbow=horizontal;endArrow=classic;html=1;entryX=0;entryY=0.5;entryDx=0;entryDy=0;exitX=0;exitY=0.5;exitDx=0;exitDy=0;" edge="1" parent="1" source="r66ZojYVudYdEzCmoIGI-1" target="r66ZojYVudYdEzCmoIGI-2">
          <mxGeometry width="50" height="50" relative="1" as="geometry">
            <mxPoint x="200" y="270" as="sourcePoint" />
            <mxPoint x="230" y="170" as="targetPoint" />
            <Array as="points">
              <mxPoint x="130" y="210" />
            </Array>
          </mxGeometry>
        </mxCell>
        <UserObject label="动作A" placeholders="1" name="Variable" id="r66ZojYVudYdEzCmoIGI-6">
          <mxCell style="text;html=1;strokeColor=none;fillColor=none;align=center;verticalAlign=middle;whiteSpace=wrap;overflow=hidden;" vertex="1" parent="1">
            <mxGeometry x="390" y="200" width="80" height="20" as="geometry" />
          </mxCell>
        </UserObject>
        <UserObject label="状态S" placeholders="1" name="Variable" id="r66ZojYVudYdEzCmoIGI-7">
          <mxCell style="text;html=1;strokeColor=none;fillColor=none;align=center;verticalAlign=middle;whiteSpace=wrap;overflow=hidden;" vertex="1" parent="1">
            <mxGeometry x="50" y="190" width="80" height="20" as="geometry" />
          </mxCell>
        </UserObject>
        <UserObject label="回报R" placeholders="1" name="Variable" id="r66ZojYVudYdEzCmoIGI-8">
          <mxCell style="text;html=1;strokeColor=none;fillColor=none;align=center;verticalAlign=middle;whiteSpace=wrap;overflow=hidden;" vertex="1" parent="1">
            <mxGeometry x="50" y="220" width="80" height="20" as="geometry" />
          </mxCell>
        </UserObject>
      </root>
    </mxGraphModel>
  </diagram>
</mxfile>
